<svg width="65" height="65" viewBox="0 0 65 65" fill="none" xmlns="http://www.w3.org/2000/svg">
<path d="M55.9722 14.4445H41.5278V18.0556H55.9722V55.9722H41.5278V59.5833H59.5833V18.0556C59.5833 17.0978 59.2029 16.1793 58.5257 15.5021C57.8484 14.8249 56.9299 14.4445 55.9722 14.4445Z" fill="#111111"/>
<path d="M35.8944 5.41663H11.05C10.0348 5.41663 9.06121 5.81991 8.34336 6.53776C7.62551 7.2556 7.22223 8.22921 7.22223 9.2444V59.5833H39.7222V9.2444C39.7222 8.22921 39.3189 7.2556 38.6011 6.53776C37.8833 5.81991 36.9096 5.41663 35.8944 5.41663ZM36.1111 55.9722H30.6945V50.5555H16.25V55.9722H10.8333V9.2444C10.8333 9.21595 10.8389 9.18778 10.8498 9.16149C10.8607 9.1352 10.8767 9.11132 10.8968 9.0912C10.9169 9.07108 10.9408 9.05512 10.9671 9.04423C10.9934 9.03334 11.0216 9.02774 11.05 9.02774H35.8944C35.9229 9.02774 35.9511 9.03334 35.9774 9.04423C36.0037 9.05512 36.0275 9.07108 36.0477 9.0912C36.0678 9.11132 36.0837 9.1352 36.0946 9.16149C36.1055 9.18778 36.1111 9.21595 36.1111 9.2444V55.9722Z" fill="#111111"/>
<path d="M14.4444 14.4445H18.0556V18.0556H14.4444V14.4445Z" fill="#111111"/>
<path d="M21.6667 14.4445H25.2778V18.0556H21.6667V14.4445Z" fill="#111111"/>
<path d="M28.8889 14.4445H32.5V18.0556H28.8889V14.4445Z" fill="#111111"/>
<path d="M14.4444 23.4722H18.0556V27.0833H14.4444V23.4722Z" fill="#111111"/>
<path d="M21.6667 23.4722H25.2778V27.0833H21.6667V23.4722Z" fill="#111111"/>
<path d="M28.8889 23.4722H32.5V27.0833H28.8889V23.4722Z" fill="#111111"/>
<path d="M14.4444 32.5H18.0556V36.1111H14.4444V32.5Z" fill="#111111"/>
<path d="M21.6667 32.5H25.2778V36.1111H21.6667V32.5Z" fill="#111111"/>
<path d="M28.8889 32.5H32.5V36.1111H28.8889V32.5Z" fill="#111111"/>
<path d="M14.4444 41.5278H18.0556V45.1389H14.4444V41.5278Z" fill="#111111"/>
<path d="M21.6667 41.5278H25.2778V45.1389H21.6667V41.5278Z" fill="#111111"/>
<path d="M28.8889 41.5278H32.5V45.1389H28.8889V41.5278Z" fill="#111111"/>
<path d="M41.5278 23.4722H45.1389V27.0833H41.5278V23.4722Z" fill="#111111"/>
<path d="M48.75 23.4722H52.3611V27.0833H48.75V23.4722Z" fill="#111111"/>
<path d="M41.5278 32.5H45.1389V36.1111H41.5278V32.5Z" fill="#111111"/>
<path d="M48.75 32.5H52.3611V36.1111H48.75V32.5Z" fill="#111111"/>
<path d="M41.5278 41.5278H45.1389V45.1389H41.5278V41.5278Z" fill="#111111"/>
<path d="M48.75 41.5278H52.3611V45.1389H48.75V41.5278Z" fill="#111111"/>
</svg>
