<svg width="24" height="26" viewBox="0 0 24 26" fill="none" xmlns="http://www.w3.org/2000/svg">
<path d="M15 7.9828H17M3 13.0348H4H3ZM20 13.0348C20.2652 13.0348 20.5196 12.9283 20.7071 12.7389C20.8946 12.5494 21 12.2924 21 12.0244V7.9828C21 6.9724 20.4 4.9516 18 4.9516C15.6 4.9516 15 6.9724 15 7.9828L20 13.0348ZM20 13.0348V15.0556C20 16.2054 19.417 18.3374 17.255 18.9365L20 13.0348ZM20 13.0348L4 13.0348L20 13.0348ZM4 13.0348L4 15.0556C4 16.2054 4.583 18.3374 6.745 18.9365L4 13.0348ZM6 21.118L6.745 18.9365L6 21.118ZM6.745 18.9365C7.115 19.0396 7.532 19.0972 8 19.0972H16C16.4236 19.1009 16.8457 19.0469 17.255 18.9365H6.745ZM18 21.118L17.255 18.9365L18 21.118ZM15 7.9828L13 7.9828L15 7.9828Z" stroke="#111111" stroke-width="2" stroke-linecap="round" stroke-linejoin="round"/>
</svg>
