<svg width="24" height="24" viewBox="0 0 24 24" fill="none" xmlns="http://www.w3.org/2000/svg">
<path d="M6.75 4.6355H17.25C17.9503 4.63547 18.6242 4.88288 19.1343 5.32727C19.6444 5.77166 19.9522 6.37955 19.995 7.02694L20 7.18255V10.289C20.5451 10.4323 21.0291 10.728 21.386 11.1356C21.7429 11.5432 21.9552 12.043 21.994 12.5665L22 12.7397V19.6862C21.9999 19.8622 21.9278 20.0316 21.798 20.1603C21.6683 20.2889 21.4907 20.3671 21.3011 20.3791C21.1115 20.391 20.9241 20.3359 20.7767 20.2249C20.6293 20.1138 20.5329 19.9551 20.507 19.7807L20.5 19.6862V17.6023H3.5V19.6862C3.49999 19.8541 3.43436 20.0163 3.31523 20.1428C3.19611 20.2693 3.03155 20.3516 2.852 20.3744L2.75 20.3809C2.56876 20.3809 2.39366 20.3201 2.25707 20.2098C2.12048 20.0994 2.03165 19.947 2.007 19.7807L2 19.6862V12.7397C2 11.5737 2.846 10.591 4 10.2881V7.18255C3.99997 6.53394 4.26709 5.90976 4.74689 5.43731C5.22669 4.96487 5.88302 4.67975 6.582 4.64013L6.75 4.6355ZM19.25 11.582H4.75C4.44054 11.5819 4.14203 11.6881 3.91223 11.88C3.68244 12.072 3.53769 12.3361 3.506 12.6212L3.5 12.7397V16.213H20.5V12.7397C20.4999 12.4533 20.3851 12.177 20.1779 11.9644C19.9707 11.7517 19.6857 11.6178 19.378 11.5885L19.25 11.582ZM17.25 6.0248H6.75C6.44054 6.02467 6.14203 6.13086 5.91223 6.32282C5.68244 6.51479 5.53769 6.77888 5.506 7.06399L5.5 7.18255V10.1927H7C7 9.94705 7.10536 9.71147 7.29289 9.53777C7.48043 9.36407 7.73478 9.26649 8 9.26649H10C10.2449 9.26652 10.4813 9.34981 10.6644 9.50056C10.8474 9.65131 10.9643 9.85903 10.993 10.0843L11 10.1927H13C13 9.94705 13.1054 9.71147 13.2929 9.53777C13.4804 9.36407 13.7348 9.26649 14 9.26649H16C16.2449 9.26652 16.4813 9.34981 16.6644 9.50056C16.8474 9.65131 16.9643 9.85903 16.993 10.0843L17 10.1927H18.5V7.18255C18.5001 6.89593 18.3855 6.61945 18.1782 6.40661C17.971 6.19377 17.6858 6.0597 17.378 6.03035L17.25 6.0248Z" fill="#111111"/>
</svg>
