<svg width="27" height="24" viewBox="0 0 27 24" fill="none" xmlns="http://www.w3.org/2000/svg">
<g clip-path="url(#clip0_10_536)">
<path fill-rule="evenodd" clip-rule="evenodd" d="M24.9126 1.01413C25.0348 1.07636 25.1357 1.16326 25.2057 1.2666C25.2757 1.36993 25.3124 1.48627 25.3125 1.60458V22.4441C25.3125 22.6283 25.2236 22.805 25.0654 22.9353C24.9071 23.0655 24.6925 23.1387 24.4688 23.1387H19.4062C19.1825 23.1387 18.9679 23.0655 18.8096 22.9353C18.6514 22.805 18.5625 22.6283 18.5625 22.4441V20.3601H16.875V22.4441C16.875 22.6283 16.7861 22.805 16.6279 22.9353C16.4696 23.0655 16.255 23.1387 16.0312 23.1387H0.84375C0.619974 23.1387 0.405362 23.0655 0.247129 22.9353C0.0888949 22.805 0 22.6283 0 22.4441V14.8029C0.000134404 14.6572 0.0559374 14.5152 0.159511 14.397C0.263084 14.2788 0.409182 14.1904 0.577125 14.1444L10.125 11.5242V7.16178C10.125 7.03288 10.1686 6.90652 10.2508 6.79685C10.3331 6.68717 10.4508 6.5985 10.5907 6.54076L24.0907 0.983565C24.2195 0.930502 24.3626 0.905453 24.5065 0.910803C24.6503 0.916153 24.7901 0.951724 24.9126 1.01413ZM10.125 12.9885L1.6875 15.3031V21.7494H10.125V12.9885ZM11.8125 21.7494H15.1875V19.6655C15.1875 19.4812 15.2764 19.3045 15.4346 19.1743C15.5929 19.044 15.8075 18.9708 16.0312 18.9708H19.4062C19.63 18.9708 19.8446 19.044 20.0029 19.1743C20.1611 19.3045 20.25 19.4812 20.25 19.6655V21.7494H23.625V2.72852L11.8125 7.59107V21.7494Z" fill="#111111"/>
<path d="M3.375 16.1923H5.0625V17.5816H3.375V16.1923ZM6.75 16.1923H8.4375V17.5816H6.75V16.1923ZM3.375 18.9709H5.0625V20.3602H3.375V18.9709ZM6.75 18.9709H8.4375V20.3602H6.75V18.9709ZM13.5 13.4137H15.1875V14.803H13.5V13.4137ZM16.875 13.4137H18.5625V14.803H16.875V13.4137ZM13.5 16.1923H15.1875V17.5816H13.5V16.1923ZM16.875 16.1923H18.5625V17.5816H16.875V16.1923ZM20.25 13.4137H21.9375V14.803H20.25V13.4137ZM20.25 16.1923H21.9375V17.5816H20.25V16.1923ZM13.5 10.6351H15.1875V12.0244H13.5V10.6351ZM16.875 10.6351H18.5625V12.0244H16.875V10.6351ZM20.25 10.6351H21.9375V12.0244H20.25V10.6351ZM13.5 7.85648H15.1875V9.24578H13.5V7.85648ZM16.875 7.85648H18.5625V9.24578H16.875V7.85648ZM20.25 7.85648H21.9375V9.24578H20.25V7.85648ZM20.25 5.07788H21.9375V6.46718H20.25V5.07788Z" fill="#111111"/>
</g>
<defs>
<clipPath id="clip0_10_536">
<rect width="27" height="22.2288" fill="white" transform="translate(0 0.909973)"/>
</clipPath>
</defs>
</svg>
