<svg width="65" height="65" viewBox="0 0 65 65" fill="none" xmlns="http://www.w3.org/2000/svg">
<path d="M60.4319 13.307C60.148 13.1646 59.8316 13.0997 59.5146 13.1187C59.1976 13.1377 58.8912 13.24 58.6264 13.4153L41.5278 24.8625V14.9139C41.5283 14.5705 41.431 14.2341 41.2471 13.9441C41.0632 13.6541 40.8004 13.4225 40.4896 13.2766C40.1788 13.1306 39.8327 13.0764 39.4922 13.1201C39.1516 13.1639 38.8305 13.3038 38.5667 13.5236L24.3389 25.2778H18.0556V8.34167C18.0658 7.9243 17.931 7.51628 17.6742 7.18708C17.4175 6.85788 17.0545 6.62784 16.6472 6.53612L9.425 4.91112C9.15854 4.85132 8.88198 4.85276 8.61614 4.91531C8.35031 4.97786 8.10213 5.09989 7.89028 5.27223C7.67351 5.44783 7.50038 5.67126 7.38447 5.92501C7.26856 6.17876 7.21303 6.45591 7.22223 6.73473V25.2778H5.41667C4.93781 25.2778 4.47856 25.468 4.13995 25.8066C3.80134 26.1452 3.61111 26.6045 3.61111 27.0833V55.9722C3.61111 56.4511 3.80134 56.9103 4.13995 57.249C4.47856 57.5876 4.93781 57.7778 5.41667 57.7778H59.5833C60.0622 57.7778 60.5215 57.5876 60.8601 57.249C61.1987 56.9103 61.3889 56.4511 61.3889 55.9722V14.9139C61.3913 14.5842 61.3034 14.2601 61.1347 13.9769C60.966 13.6936 60.723 13.4619 60.4319 13.307ZM10.8333 9.02778L14.4444 9.82223V25.2778H10.8333V9.02778ZM57.7778 54.1667H7.22223V28.8889H24.9708C25.3927 28.8897 25.8015 28.7428 26.1264 28.4736L37.9167 18.7236V28.2569C37.9162 28.585 38.005 28.9069 38.1737 29.1882C38.3424 29.4695 38.5846 29.6996 38.8741 29.8537C39.1637 30.0077 39.4898 30.08 39.8174 30.0627C40.1449 30.0454 40.4616 29.9392 40.7333 29.7556L57.7778 18.3083V54.1667Z" fill="#111111"/>
<path d="M10.8333 32.4819H25.2778V36.093H10.8333V32.4819ZM10.8333 39.7042H25.2778V43.3153H10.8333V39.7042ZM10.8333 46.9264H25.2778V50.5375H10.8333V46.9264ZM34.3056 34.2875H37.9167V39.7042H34.3056V34.2875ZM34.3056 45.1208H37.9167V50.5375H34.3056V45.1208ZM41.5278 34.2875H45.1389V39.7042H41.5278V34.2875ZM41.5278 45.1208H45.1389V50.5375H41.5278V45.1208ZM48.75 34.2875H52.3611V39.7042H48.75V34.2875ZM48.75 45.1208H52.3611V50.5375H48.75V45.1208Z" fill="#111111"/>
</svg>
