<svg width="65" height="65" viewBox="0 0 65 65" fill="none" xmlns="http://www.w3.org/2000/svg">
<path d="M60.8653 31.218L33.7819 4.13466C33.4437 3.79838 32.986 3.60962 32.509 3.60962C32.032 3.60962 31.5744 3.79838 31.2361 4.13466L4.15279 31.218C3.85699 31.5634 3.70242 32.0077 3.71997 32.4621C3.73753 32.9165 3.9259 33.3476 4.24746 33.6692C4.56902 33.9907 5.00008 34.1791 5.4545 34.1966C5.90891 34.2142 6.35321 34.0596 6.69862 33.7638L32.5 7.96244L58.3014 33.7819C58.6468 34.0777 59.0911 34.2323 59.5455 34.2147C59.9999 34.1971 60.431 34.0088 60.7526 33.6872C61.0741 33.3657 61.2625 32.9346 61.28 32.4802C61.2976 32.0258 61.143 31.5815 60.8472 31.2361L60.8653 31.218Z" fill="#111111"/>
<path d="M50.5556 57.7778H41.5278V39.7222H23.4722V57.7778H14.4445V32.5L10.8333 36.1111V57.7778C10.8333 58.7355 11.2138 59.654 11.891 60.3312C12.5682 61.0084 13.4867 61.3889 14.4445 61.3889H27.0833V43.3333H37.9167V61.3889H50.5556C51.5133 61.3889 52.4318 61.0084 53.109 60.3312C53.7862 59.654 54.1667 58.7355 54.1667 57.7778V35.6778L50.5556 32.0667V57.7778Z" fill="#111111"/>
</svg>
