<svg width="65" height="65" viewBox="0 0 65 65" fill="none" xmlns="http://www.w3.org/2000/svg">
<path d="M13.4977 35.3569H21.1077V27.7397H13.4977V35.3569ZM17.682 28.5015H20.346V31.1665H17.682V28.5015ZM17.682 31.9292H20.346V34.5962H17.682V31.9292ZM14.2573 28.5015H16.9203V31.1665H14.2573V28.5015ZM14.2573 31.9292H16.9203V34.5962H14.2573V31.9292ZM30.811 35.3569H36.138V27.7397H30.811V35.3569ZM33.8559 28.5015H35.3793V31.1665H33.8559V28.5015ZM33.8559 31.9292H35.3793V34.5962H33.8559V31.9292ZM31.5727 28.5015H33.0931V31.1665H31.5727V28.5015ZM31.5727 31.9292H33.0931V34.5962H31.5727V31.9292ZM35.7855 46.8233H28.1765V54.4415H35.7855V46.8233ZM31.6002 53.6788H28.9362V51.0138H31.6002V53.6788ZM31.6002 50.2521H28.9362V47.5851H31.6002V50.2521ZM35.0248 53.6788H32.3598V51.0138H35.0248V53.6788ZM35.0248 50.2521H32.3598V47.5851H35.0248V50.2521Z" fill="#111111"/>
<path d="M62.3634 50.6573C62.2984 50.6776 61.8282 50.8168 61.3793 51.1377C61.157 50.9798 60.9158 50.8505 60.6612 50.7528V49.2476L60.0549 49.4203C59.703 49.526 59.3706 49.6883 59.0708 49.9007C58.7719 49.6885 58.4406 49.5262 58.0897 49.4203L57.4834 49.2476V50.377L56.9319 50.5314C56.8679 50.5527 56.3966 50.6908 55.9477 51.0128C55.8289 50.9299 55.7047 50.8549 55.576 50.7883V37.115C55.6522 37.1668 55.7151 37.1993 55.7964 37.2561C60.253 40.3507 60.8776 35.1172 60.3901 33.2698C59.4618 29.7395 62.0232 28.8793 62.7291 25.9411C63.9813 20.7146 59.8162 17.8648 61.103 12.8761C62.3939 7.88832 58.1405 -3.07434 52.6561 4.78254C50.8442 7.37949 48.621 2.71675 45.7559 6.72847C42.8898 10.7382 44.3767 14.2035 45.2583 16.8218C47.0143 22.0258 43.4972 23.7128 45.8037 28.0698C48.1101 32.4248 44.7962 34.5241 49.14 36.9535C50.5568 37.7446 51.2799 37.7182 51.7705 37.4369V41.6934L40.1344 38.4749V22.9785H42.9873L34.4256 17.5246V11.5527H35.3783V9.6484H28.7178V11.5527H29.6705V14.4939L22.0604 9.6484L3.03266 22.9785H5.88555V38.9837L2.03125 42.1027H5.88555V59.1601H2.08102V62.9687H62.8651V59.1601H61.5641V54.5614H61.752C62.0749 54.5611 62.3845 54.4327 62.6128 54.2044C62.8411 53.9761 62.9695 53.6665 62.9698 53.3436V50.4867L62.3634 50.6573ZM58.7468 20.3511C59.2543 20.3511 59.741 20.5526 60.0998 20.9115C60.4586 21.2703 60.6602 21.757 60.6602 22.2645C60.6602 22.772 60.4586 23.2587 60.0998 23.6175C59.741 23.9763 59.2543 24.1779 58.7468 24.1779C57.6885 24.1779 59.3491 23.3197 59.3491 22.2645C59.3491 21.2072 57.6885 20.3511 58.7468 20.3511ZM57.0913 10.079C57.2607 10.079 57.4284 10.1124 57.5849 10.1772C57.7414 10.242 57.8836 10.337 58.0034 10.4568C58.1232 10.5766 58.2182 10.7188 58.283 10.8753C58.3478 11.0318 58.3812 11.1995 58.3812 11.3689C58.3812 11.5382 58.3478 11.706 58.283 11.8625C58.2182 12.019 58.1232 12.1611 58.0034 12.2809C57.8836 12.4007 57.7414 12.4957 57.5849 12.5605C57.4284 12.6253 57.2607 12.6587 57.0913 12.6587C56.3804 12.6587 57.4397 12.0818 57.4397 11.3689C57.4397 10.6559 56.3804 10.079 57.0913 10.079ZM57.0751 31.072C57.4538 31.072 57.817 31.2224 58.0848 31.4902C58.3526 31.758 58.503 32.1212 58.503 32.5C58.503 32.8787 58.3526 33.2419 58.0848 33.5097C57.817 33.7775 57.4538 33.9279 57.0751 33.9279C56.2849 33.9279 57.0751 33.2911 57.0751 32.5C57.0751 31.7108 56.2849 31.072 57.0751 31.072ZM28.7198 22.9785H38.2312V38.2128H28.7198V22.9785ZM7.78984 22.9785H26.8155V38.2128H7.78984V22.9785ZM19.7173 53.7682C19.5693 53.7682 19.4274 53.7094 19.3227 53.6047C19.2181 53.5 19.1593 53.3581 19.1593 53.2101C19.1593 53.0621 19.2181 52.9201 19.3227 52.8154C19.4274 52.7108 19.5693 52.652 19.7173 52.652C19.8654 52.652 20.0073 52.7108 20.112 52.8154C20.2166 52.9201 20.2754 53.0621 20.2754 53.2101C20.2754 53.3581 20.2166 53.5 20.112 53.6047C20.0073 53.7094 19.8654 53.7682 19.7173 53.7682ZM39.0518 59.1601H21.0173V48.7459H21.7618V47.258H12.8426V48.7459H13.584V59.1601H7.78984V42.1027H39.0518V59.1601ZM45.757 53.6788H44.8226V51.0138H45.6635V53.2187C45.6635 53.3822 45.698 53.5366 45.757 53.6788ZM44.8226 50.2521V47.585H46.345V50.2521H44.8226ZM46.1398 50.9904C46.1398 50.9904 46.8132 51.1824 47.2519 51.6384C47.6927 51.1834 48.3661 50.9904 48.3661 50.9904V53.2187C48.3662 53.3163 48.3471 53.413 48.3099 53.5033C48.2726 53.5935 48.218 53.6756 48.1491 53.7447C48.0801 53.8138 47.9982 53.8687 47.9081 53.9062C47.8179 53.9437 47.7213 53.963 47.6237 53.9632H46.8823C46.7847 53.963 46.6882 53.9437 46.5981 53.9061C46.5081 53.8686 46.4264 53.8137 46.3576 53.7446C46.2888 53.6754 46.2343 53.5934 46.1973 53.5031C46.1603 53.4129 46.1415 53.3162 46.1419 53.2187V50.9904H46.1398ZM47.0661 59.1601H40.9561V42.1027H47.9253V50.6451C47.6873 50.741 47.4613 50.8644 47.2519 51.0128C47.2032 50.9782 47.1534 50.9508 47.1037 50.9214V46.8223H41.7767V54.4405H47.0661V59.1601ZM42.5384 50.2521V47.585H44.0598V50.2521H42.5384ZM44.0598 51.0138V53.6788H42.5384V51.0138H44.0598ZM47.9253 59.1601H47.4378V56.1549C47.5516 56.359 47.7181 56.5246 47.9253 56.6363V59.1601ZM49.0628 59.1601H48.6931V56.7907H49.0628V59.1601ZM49.2294 56.3143H48.4859C48.3885 56.3145 48.292 56.2954 48.2019 56.2582C48.1118 56.221 48.03 56.1664 47.961 56.0975C47.8921 56.0287 47.8374 55.9469 47.8 55.8569C47.7627 55.7669 47.7435 55.6704 47.7435 55.5729V54.4141C47.9307 54.3956 48.1107 54.3329 48.2689 54.2312C48.4271 54.1295 48.5589 53.9917 48.6535 53.8291C48.7226 53.8829 48.7957 53.9266 48.8577 53.9906C49.2964 53.5356 49.9708 53.3457 49.9708 53.3457V55.5719C49.9709 55.6694 49.9518 55.7659 49.9146 55.8559C49.8774 55.946 49.8228 56.0279 49.754 56.0968C49.6851 56.1658 49.6033 56.2205 49.5133 56.2578C49.4233 56.2951 49.3268 56.3143 49.2294 56.3143ZM50.1891 59.1601H49.8296V56.6078C49.9738 56.5246 50.0916 56.4169 50.1891 56.2869V59.1601ZM49.986 52.845C49.7926 52.8407 49.6084 52.761 49.4729 52.6229C49.3374 52.4847 49.2613 52.2991 49.2609 52.1056V49.8763C49.2609 49.8763 49.9352 50.0672 50.375 50.5243C50.8148 50.0682 51.4891 49.8763 51.4891 49.8763V52.1056C51.4891 52.2031 51.4699 52.2996 51.4326 52.3897C51.3953 52.4798 51.3406 52.5616 51.2717 52.6306C51.2027 52.6995 51.1209 52.7542 51.0308 52.7915C50.9408 52.8288 50.8442 52.848 50.7467 52.848H50.4481V52.7139L49.986 52.845ZM51.7725 59.1601H50.5598V53.3254H50.7467C51.0504 53.3254 51.3195 53.2025 51.5338 53.0176V53.3426C51.5338 53.6036 51.6334 53.8311 51.7725 54.0292V59.1601ZM51.7725 49.3035L51.3581 49.4203C51.0065 49.5259 50.6744 49.6882 50.375 49.9007C50.2037 49.7797 50.021 49.6756 49.8296 49.5899V42.1027H51.7725V49.3035ZM57.5392 53.2187V52.3757C57.6093 52.6784 57.784 52.9303 58.0338 53.0978C57.8737 53.1743 57.7205 53.2644 57.5758 53.367C57.5555 53.3538 57.5362 53.3436 57.5159 53.3294C57.5209 53.2929 57.5392 53.2583 57.5392 53.2187ZM52.1127 18.8164C52.1127 19.6066 52.8998 20.2444 52.1127 20.2444C51.734 20.2444 51.3708 20.094 51.103 19.8262C50.8352 19.5584 50.6848 19.1952 50.6848 18.8164C50.6848 18.4377 50.8352 18.0745 51.103 17.8067C51.3708 17.5389 51.734 17.3885 52.1127 17.3885C52.8998 17.3885 52.1127 18.0283 52.1127 18.8164ZM52.0731 8.14425C53.1395 8.14425 51.5531 9.0116 51.5531 10.079C51.5531 11.1464 53.1395 12.0128 52.0731 12.0128C51.8154 12.0187 51.5591 11.973 51.3192 11.8785C51.0794 11.7839 50.8608 11.6424 50.6765 11.4622C50.4921 11.282 50.3456 11.0668 50.2456 10.8291C50.1456 10.5915 50.094 10.3363 50.094 10.0785C50.094 9.8207 50.1456 9.5655 50.2456 9.32788C50.3456 9.09027 50.4921 8.87504 50.6765 8.69484C50.8608 8.51465 51.0794 8.37311 51.3192 8.27856C51.5591 8.18401 51.8154 8.13835 52.0731 8.14425ZM47.579 14.9825C47.579 14.1943 48.2198 13.5545 49.0069 13.5545C49.793 13.5545 48.7693 14.1943 48.7693 14.9825C48.7693 15.7736 49.7941 16.4114 49.0069 16.4114C48.8193 16.4114 48.6336 16.3745 48.4603 16.3026C48.2869 16.2308 48.1295 16.1255 47.9969 15.9928C47.8643 15.8601 47.7591 15.7026 47.6874 15.5292C47.6157 15.3559 47.5788 15.1701 47.579 14.9825ZM51.223 28.345C50.4653 28.345 49.7387 28.044 49.2029 27.5083C48.6671 26.9725 48.3661 26.2458 48.3661 25.4881C48.3661 24.7304 48.6671 24.0037 49.2029 23.4679C49.7387 22.9321 50.4653 22.6311 51.223 22.6311C52.8003 22.6311 50.6005 23.9108 50.6005 25.4881C50.6005 27.0653 52.7993 28.345 51.223 28.345ZM53.2391 59.1601H52.8694V54.5614H53.2391V59.1601ZM54.2354 53.3426C54.2354 53.7539 53.9033 54.084 53.494 54.084H52.7526C52.6551 54.0842 52.5586 54.0651 52.4685 54.0279C52.3785 53.9907 52.2966 53.9361 52.2277 53.8672C52.1587 53.7984 52.104 53.7166 52.0667 53.6266C52.0294 53.5366 52.0102 53.4401 52.0102 53.3426V51.1164C52.0102 51.1164 52.6835 51.3063 53.1243 51.7623C53.563 51.3063 54.2374 51.1164 54.2374 51.1164V53.3426H54.2354ZM54.8366 53.2187V50.9904C54.8366 50.9904 55.51 51.1824 55.9498 51.6394C56.3895 51.1834 57.0639 50.9904 57.0639 50.9904V53.2187C57.064 53.3163 57.0449 53.413 57.0077 53.5033C56.9705 53.5935 56.9158 53.6756 56.8469 53.7447C56.7779 53.8138 56.696 53.8687 56.6059 53.9062C56.5158 53.9437 56.4191 53.963 56.3215 53.9632H55.5811C55.4833 53.9633 55.3864 53.9441 55.296 53.9068C55.2057 53.8694 55.1235 53.8146 55.0544 53.7454C54.9852 53.6763 54.9304 53.5941 54.893 53.5038C54.8557 53.4134 54.8365 53.3165 54.8366 53.2187ZM55.7659 59.1601H55.577V54.4405H55.7659V59.1601ZM57.3899 59.1601H56.1366V56.1264C56.2364 56.3251 56.389 56.4924 56.5777 56.61C56.7663 56.7275 56.9838 56.7907 57.2061 56.7927H57.3909V59.1601H57.3899ZM57.2051 56.3164C57.0078 56.3161 56.8187 56.2375 56.6793 56.098C56.5399 55.9584 56.4616 55.7692 56.4616 55.5719V54.41C56.8486 54.3643 57.1705 54.1419 57.3584 53.822C57.4316 53.8789 57.5098 53.9215 57.5768 53.9906C58.0166 53.5356 58.6909 53.3426 58.6909 53.3426V55.5709C58.6911 55.6685 58.672 55.7652 58.6347 55.8555C58.5975 55.9457 58.5428 56.0278 58.4739 56.0969C58.405 56.166 58.3231 56.2209 58.2329 56.2584C58.1428 56.2959 58.0461 56.3152 57.9485 56.3153H57.2051V56.3164ZM58.8869 59.1601H57.7606V56.7927H57.9475C58.3344 56.7927 58.6645 56.5987 58.888 56.3164V59.1601H58.8869ZM58.7011 52.849C58.6037 52.849 58.5072 52.8298 58.4173 52.7925C58.3273 52.7551 58.2456 52.7004 58.1768 52.6314C58.1081 52.5625 58.0536 52.4806 58.0165 52.3906C57.9794 52.3005 57.9604 52.204 57.9607 52.1066V49.8773C57.9607 49.8773 58.632 50.0682 59.0718 50.5243C59.5116 50.0693 60.1859 49.8773 60.1859 49.8773V52.1066C60.1861 52.2041 60.167 52.3007 60.1297 52.3909C60.0924 52.481 60.0377 52.5629 59.9688 52.6319C59.8998 52.7008 59.8179 52.7555 59.7278 52.7928C59.6376 52.83 59.541 52.8492 59.4435 52.849H58.7011ZM61.1934 59.1601H59.2576V53.3254H59.4435C59.5664 53.3254 59.6781 53.2908 59.7909 53.2563V53.3436C59.7911 53.6667 59.9196 53.9764 60.1482 54.2048C60.3767 54.4331 60.6865 54.5614 61.0096 54.5614H61.1944V59.1601H61.1934ZM62.4924 53.3426C62.4924 53.7539 62.1603 54.084 61.751 54.084H61.0086C60.9111 54.0842 60.8146 54.0651 60.7245 54.0279C60.6345 53.9907 60.5526 53.9361 60.4837 53.8672C60.4147 53.7984 60.36 53.7166 60.3227 53.6266C60.2854 53.5366 60.2662 53.4401 60.2662 53.3426V52.9932C60.5059 52.7688 60.6623 52.458 60.6623 52.1056V51.2728C60.9289 51.3913 61.1721 51.5568 61.3803 51.7613C61.8191 51.3053 62.4934 51.1153 62.4934 51.1153V53.3426H62.4924Z" fill="#111111"/>
</svg>
